{"asset":{"version":"2.0","generator":"THREE.GLTFExporter r181"},"scenes":[{"name":"AuxScene","nodes":[0]}],"scene":0,"nodes":[{"name":"VerdantArchiveSanctum","children":[1,2,3,4,5,6,7,8,9,10,11,12,13,14,15,16,17,18,19,20,21,22,23,24,25,26,27,28,29,32,35,38,41,44,47,50]},{"matrix":[1,0,0,0,0,1,0,0,0,0,1,0,0,0.3,0,1],"name":"ArchiveDais","mesh":0},{"matrix":[1,0,0,0,0,1,0,0,0,0,1,0,0,0.78,0,1],"name":"MossRing","mesh":1},{"matrix":[0.9992001066609779,-0.03998933418663416,0,0,0.03998933418663416,0.9992001066609779,0,0,0,0,1,0,0,3.8,0,1],"name":"MemoryTree","mesh":2},{"matrix":[0.6599831458849822,0.7512804051402927,0,0,-0.7512804051402927,0.6599831458849822,0,0,0,0,1,0,0.6,5.5,0,1],"name":"MemoryBranch_1","mesh":3},{"matrix":[0.8628240905346293,0.3979280309764686,0.3117496927926001,0,-0.5055042915674306,0.6792066796523091,0.5321124857796476,0,0,-0.6167102792064328,0.7871902130496311,0,0.37409388111524017,5.95,0.46909888948081785,1],"name":"MemoryBranch_2","mesh":3},{"matrix":[0.9821657653117766,-0.12706996850411248,-0.13857717183539317,0,0.18801704563558122,0.663789670995482,0.7239011418903673,0,0,-0.7370457894758463,0.6758428102864795,0,-0.13351256037378859,5.5,0.5849567473090942,1],"name":"MemoryBranch_3","mesh":3},{"matrix":[0.7208117825363729,-0.6465248612304997,-0.249871923127869,0,0.6931308492317569,0.6723445337834287,0.25985082977509855,0,-1.3877787807814457e-17,-0.36049747808053656,0.93276018798916,0,-0.5405813207414514,5.95,0.2603302434705349,1],"name":"MemoryBranch_4","mesh":3},{"matrix":[0.7208117825363729,-0.6465248612304998,0.2498719231278689,0,0.693130849231757,0.6723445337834286,-0.25985082977509844,0,0,0.36049747808053634,0.93276018798916,0,-0.5405813207414515,5.5,-0.2603302434705348,1],"name":"MemoryBranch_5","mesh":3},{"matrix":[0.9821657653117766,-0.12706996850411262,0.13857717183539334,0,0.18801704563558141,0.663789670995482,-0.7239011418903671,0,0,0.7370457894758464,0.6758428102864795,0,-0.13351256037378875,5.95,-0.5849567473090942,1],"name":"MemoryBranch_6","mesh":3},{"matrix":[0.8628240905346294,0.3979280309764684,-0.31174969279260006,0,-0.5055042915674304,0.6792066796523091,-0.5321124857796479,0,0,0.6167102792064328,0.7871902130496311,0,0.37409388111524,5.5,-0.4690988894808179,1],"name":"MemoryBranch_7","mesh":3},{"matrix":[0.7,0,0,0,0,1.05,0,0,0,0,0.86,0,1.3,6.2,0,1],"name":"ArchiveCanopy_1","mesh":4},{"matrix":[0.8799999999999999,0,0,0,0,1.05,0,0,0,0,1.02,0,1.433060862380064,6.58,0.8767762341182088,1],"name":"ArchiveCanopy_2","mesh":4},{"matrix":[1.06,0,0,0,0,1.05,0,0,0,0,0.7,0,0.9378363638662939,6.96,1.8341382048826225,1],"name":"ArchiveCanopy_3","mesh":4},{"matrix":[0.7,0,0,0,0,1.05,0,0,0,0,0.86,0,1.2200000000000004,7.34,2.1131019852340307,1],"name":"ArchiveCanopy_4","mesh":4},{"matrix":[0.8799999999999999,0,0,0,0,1.05,0,0,0,0,1.02,0,-0.03310361862382489,7.720000000000001,1.299578451050189,1],"name":"ArchiveCanopy_5","mesh":4},{"matrix":[1.06,0,0,0,0,1.05,0,0,0,0,0.7,0,-0.9129838465430148,6.2,1.4102696536306527,1],"name":"ArchiveCanopy_6","mesh":4},{"matrix":[0.7,0,0,0,0,1.05,0,0,0,0,0.86,0,-1.0299999999999996,6.58,1.7840123317959438,1],"name":"ArchiveCanopy_7","mesh":4},{"matrix":[0.8799999999999999,0,0,0,0,1.05,0,0,0,0,1.02,0,-2.1434832458481443,6.96,1.1657956831144585,1],"name":"ArchiveCanopy_8","mesh":4},{"matrix":[1.06,0,0,0,0,1.05,0,0,0,0,0.7,0,-1.2983140775907822,7.34,-0.06618576833124082,1],"name":"ArchiveCanopy_9","mesh":4},{"matrix":[0.7,0,0,0,0,1.05,0,0,0,0,0.86,0,-1.6800000000000002,7.720000000000001,2.0574066225675535e-16,1],"name":"ArchiveCanopy_10","mesh":4},{"matrix":[0.8799999999999999,0,0,0,0,1.05,0,0,0,0,1.02,0,-1.7572055812517449,6.2,-1.075094668025899,1],"name":"ArchiveCanopy_11","mesh":4},{"matrix":[1.06,0,0,0,0,1.05,0,0,0,0,0.7,0,-1.1108353047736679,6.58,-2.172474378598835,1],"name":"ArchiveCanopy_12","mesh":4},{"matrix":[0.7,0,0,0,0,1.05,0,0,0,0,0.86,0,-0.6500000000000006,6.96,-1.12583302491977,1],"name":"ArchiveCanopy_13","mesh":4},{"matrix":[0.8799999999999999,0,0,0,0,1.05,0,0,0,0,1.02,0,0.04278006099078962,7.34,-1.679455229049475,1],"name":"ArchiveCanopy_14","mesh":4},{"matrix":[1.06,0,0,0,0,1.05,0,0,0,0,0.7,0,1.1194920975467917,7.720000000000001,-1.729259218142348,1],"name":"ArchiveCanopy_15","mesh":4},{"matrix":[0.7,0,0,0,0,1.05,0,0,0,0,0.86,0,1.2200000000000004,6.2,-2.1131019852340307,1],"name":"ArchiveCanopy_16","mesh":4},{"matrix":[0.8799999999999999,0,0,0,0,1.05,0,0,0,0,1.02,0,1.1420197621322077,6.58,-0.6211206508396705,1],"name":"ArchiveCanopy_17","mesh":4},{"matrix":[1.06,0,0,0,0,1.05,0,0,0,0,0.7,0,1.6778212695019339,6.96,0.08553237753575717,1],"name":"ArchiveCanopy_18","mesh":4},{"matrix":[2.220446049250313e-16,0,-1,0,0,1,0,0,1,0,2.220446049250313e-16,0,3.45,1.55,0,1],"children":[30,31]},{"name":"FieldMarker_01","mesh":5},{"matrix":[1,0,0,0,0,1,0,0,0,0,1,0,0,0.2,0.205,1],"name":"PaperLabel_01","mesh":6},{"matrix":[0.7071067811865475,0,-0.7071067811865476,0,0,1,0,0,0.7071067811865476,0,0.7071067811865475,0,2.439518395093589,1.55,2.439518395093589,1],"children":[33,34]},{"name":"FieldMarker_02","mesh":7},{"matrix":[1,0,0,0,0,1,0,0,0,0,1,0,0,0.2,0.205,1],"name":"PaperLabel_02","mesh":8},{"matrix":[1,0,0,0,0,1,0,0,0,0,1,0,2.1125157285291844e-16,1.55,3.45,1],"children":[36,37]},{"name":"FieldMarker_03","mesh":9},{"matrix":[1,0,0,0,0,1,0,0,0,0,1,0,0,0.2,0.205,1],"name":"PaperLabel_03","mesh":10},{"matrix":[0.7071067811865475,0,0.7071067811865476,0,0,1,0,0,-0.7071067811865476,0,0.7071067811865475,0,-2.439518395093589,1.55,2.439518395093589,1],"children":[39,40]},{"name":"FieldMarker_04","mesh":11},{"matrix":[1,0,0,0,0,1,0,0,0,0,1,0,0,0.2,0.205,1],"name":"PaperLabel_04","mesh":12},{"matrix":[2.220446049250313e-16,0,1,0,0,1,0,0,-1,0,2.220446049250313e-16,0,-3.45,1.55,4.225031457058369e-16,1],"children":[42,43]},{"name":"FieldMarker_05","mesh":13},{"matrix":[1,0,0,0,0,1,0,0,0,0,1,0,0,0.2,0.205,1],"name":"PaperLabel_05","mesh":14},{"matrix":[-0.7071067811865475,0,0.7071067811865477,0,0,1,0,0,-0.7071067811865477,0,-0.7071067811865475,0,-2.4395183950935895,1.55,-2.439518395093589,1],"children":[45,46]},{"name":"FieldMarker_06","mesh":15},{"matrix":[1,0,0,0,0,1,0,0,0,0,1,0,0,0.2,0.205,1],"name":"PaperLabel_06","mesh":16},{"matrix":[-1,0,1.2246467991473532e-16,0,0,1,0,0,-1.2246467991473532e-16,0,-1,0,-6.337547185587553e-16,1.55,-3.45,1],"children":[48,49]},{"name":"FieldMarker_07","mesh":17},{"matrix":[1,0,0,0,0,1,0,0,0,0,1,0,0,0.2,0.205,1],"name":"PaperLabel_07","mesh":18},{"matrix":[-0.7071067811865475,0,-0.7071067811865475,0,0,1,0,0,0.7071067811865475,0,-0.7071067811865475,0,2.4395183950935886,1.55,-2.4395183950935895,1],"children":[51,52]},{"name":"FieldMarker_08","mesh":19},{"matrix":[1,0,0,0,0,1,0,0,0,0,1,0,0,0.2,0.205,1],"name":"PaperLabel_08","mesh":20}],"bufferViews":[{"buffer":0,"byteOffset":0,"byteLength":912,"target":34962,"byteStride":12},{"buffer":0,"byteOffset":912,"byteLength":912,"target":34962,"byteStride":12},{"buffer":0,"byteOffset":1824,"byteLength":608,"target":34962,"byteStride":8},{"buffer":0,"byteOffset":2432,"byteLength":288,"target":34963},{"buffer":0,"byteOffset":2720,"byteLength":912,"target":34962,"byteStride":12},{"buffer":0,"byteOffset":3632,"byteLength":912,"target":34962,"byteStride":12},{"buffer":0,"byteOffset":4544,"byteLength":608,"target":34962,"byteStride":8},{"buffer":0,"byteOffset":5152,"byteLength":288,"target":34963},{"buffer":0,"byteOffset":5440,"byteLength":696,"target":34962,"byteStride":12},{"buffer":0,"byteOffset":6136,"byteLength":696,"target":34962,"byteStride":12},{"buffer":0,"byteOffset":6832,"byteLength":464,"target":34962,"byteStride":8},{"buffer":0,"byteOffset":7296,"byteLength":216,"target":34963},{"buffer":0,"byteOffset":7512,"byteLength":552,"target":34962,"byteStride":12},{"buffer":0,"byteOffset":8064,"byteLength":552,"target":34962,"byteStride":12},{"buffer":0,"byteOffset":8616,"byteLength":368,"target":34962,"byteStride":8},{"buffer":0,"byteOffset":8984,"byteLength":168,"target":34963},{"buffer":0,"byteOffset":9152,"byteLength":2880,"target":34962,"byteStride":12},{"buffer":0,"byteOffset":12032,"byteLength":2880,"target":34962,"byteStride":12},{"buffer":0,"byteOffset":14912,"byteLength":1920,"target":34962,"byteStride":8},{"buffer":0,"byteOffset":16832,"byteLength":288,"target":34962,"byteStride":12},{"buffer":0,"byteOffset":17120,"byteLength":288,"target":34962,"byteStride":12},{"buffer":0,"byteOffset":17408,"byteLength":192,"target":34962,"byteStride":8},{"buffer":0,"byteOffset":17600,"byteLength":72,"target":34963},{"buffer":0,"byteOffset":17672,"byteLength":288,"target":34962,"byteStride":12},{"buffer":0,"byteOffset":17960,"byteLength":288,"target":34962,"byteStride":12},{"buffer":0,"byteOffset":18248,"byteLength":192,"target":34962,"byteStride":8},{"buffer":0,"byteOffset":18440,"byteLength":72,"target":34963},{"buffer":0,"byteOffset":18512,"byteLength":288,"target":34962,"byteStride":12},{"buffer":0,"byteOffset":18800,"byteLength":288,"target":34962,"byteStride":12},{"buffer":0,"byteOffset":19088,"byteLength":192,"target":34962,"byteStride":8},{"buffer":0,"byteOffset":19280,"byteLength":72,"target":34963},{"buffer":0,"byteOffset":19352,"byteLength":288,"target":34962,"byteStride":12},{"buffer":0,"byteOffset":19640,"byteLength":288,"target":34962,"byteStride":12},{"buffer":0,"byteOffset":19928,"byteLength":192,"target":34962,"byteStride":8},{"buffer":0,"byteOffset":20120,"byteLength":72,"target":34963},{"buffer":0,"byteOffset":20192,"byteLength":288,"target":34962,"byteStride":12},{"buffer":0,"byteOffset":20480,"byteLength":288,"target":34962,"byteStride":12},{"buffer":0,"byteOffset":20768,"byteLength":192,"target":34962,"byteStride":8},{"buffer":0,"byteOffset":20960,"byteLength":72,"target":34963},{"buffer":0,"byteOffset":21032,"byteLength":288,"target":34962,"byteStride":12},{"buffer":0,"byteOffset":21320,"byteLength":288,"target":34962,"byteStride":12},{"buffer":0,"byteOffset":21608,"byteLength":192,"target":34962,"byteStride":8},{"buffer":0,"byteOffset":21800,"byteLength":72,"target":34963},{"buffer":0,"byteOffset":21872,"byteLength":288,"target":34962,"byteStride":12},{"buffer":0,"byteOffset":22160,"byteLength":288,"target":34962,"byteStride":12},{"buffer":0,"byteOffset":22448,"byteLength":192,"target":34962,"byteStride":8},{"buffer":0,"byteOffset":22640,"byteLength":72,"target":34963},{"buffer":0,"byteOffset":22712,"byteLength":288,"target":34962,"byteStride":12},{"buffer":0,"byteOffset":23000,"byteLength":288,"target":34962,"byteStride":12},{"buffer":0,"byteOffset":23288,"byteLength":192,"target":34962,"byteStride":8},{"buffer":0,"byteOffset":23480,"byteLength":72,"target":34963},{"buffer":0,"byteOffset":23552,"byteLength":288,"target":34962,"byteStride":12},{"buffer":0,"byteOffset":23840,"byteLength":288,"target":34962,"byteStride":12},{"buffer":0,"byteOffset":24128,"byteLength":192,"target":34962,"byteStride":8},{"buffer":0,"byteOffset":24320,"byteLength":72,"target":34963},{"buffer":0,"byteOffset":24392,"byteLength":288,"target":34962,"byteStride":12},{"buffer":0,"byteOffset":24680,"byteLength":288,"target":34962,"byteStride":12},{"buffer":0,"byteOffset":24968,"byteLength":192,"target":34962,"byteStride":8},{"buffer":0,"byteOffset":25160,"byteLength":72,"target":34963},{"buffer":0,"byteOffset":25232,"byteLength":288,"target":34962,"byteStride":12},{"buffer":0,"byteOffset":25520,"byteLength":288,"target":34962,"byteStride":12},{"buffer":0,"byteOffset":25808,"byteLength":192,"target":34962,"byteStride":8},{"buffer":0,"byteOffset":26000,"byteLength":72,"target":34963},{"buffer":0,"byteOffset":26072,"byteLength":288,"target":34962,"byteStride":12},{"buffer":0,"byteOffset":26360,"byteLength":288,"target":34962,"byteStride":12},{"buffer":0,"byteOffset":26648,"byteLength":192,"target":34962,"byteStride":8},{"buffer":0,"byteOffset":26840,"byteLength":72,"target":34963},{"buffer":0,"byteOffset":26912,"byteLength":288,"target":34962,"byteStride":12},{"buffer":0,"byteOffset":27200,"byteLength":288,"target":34962,"byteStride":12},{"buffer":0,"byteOffset":27488,"byteLength":192,"target":34962,"byteStride":8},{"buffer":0,"byteOffset":27680,"byteLength":72,"target":34963},{"buffer":0,"byteOffset":27752,"byteLength":288,"target":34962,"byteStride":12},{"buffer":0,"byteOffset":28040,"byteLength":288,"target":34962,"byteStride":12},{"buffer":0,"byteOffset":28328,"byteLength":192,"target":34962,"byteStride":8},{"buffer":0,"byteOffset":28520,"byteLength":72,"target":34963},{"buffer":0,"byteOffset":28592,"byteLength":288,"target":34962,"byteStride":12},{"buffer":0,"byteOffset":28880,"byteLength":288,"target":34962,"byteStride":12},{"buffer":0,"byteOffset":29168,"byteLength":192,"target":34962,"byteStride":8},{"buffer":0,"byteOffset":29360,"byteLength":72,"target":34963},{"buffer":0,"byteOffset":29432,"byteLength":288,"target":34962,"byteStride":12},{"buffer":0,"byteOffset":29720,"byteLength":288,"target":34962,"byteStride":12},{"buffer":0,"byteOffset":30008,"byteLength":192,"target":34962,"byteStride":8},{"buffer":0,"byteOffset":30200,"byteLength":72,"target":34963}],"buffers":[{"byteLength":30272,"uri":"data:application/octet-stream;base64,"}],"accessors":[{"bufferView":0,"componentType":5126,"count":76,"max":[4.699999809265137,0.32499998807907104,4.699999809265137],"min":[-4.699999809265137,-0.32499998807907104,-4.699999809265137],"type":"VEC3"},{"bufferView":1,"componentType":5126,"count":76,"max":[0.7926239967346191,1,0.7926239967346191],"min":[-0.7926239967346191,-1,-0.7926239967346191],"type":"VEC3"},{"bufferView":2,"componentType":5126,"count":76,"max":[1,1],"min":[0,0],"type":"VEC2"},{"bufferView":3,"componentType":5123,"count":144,"max":[75],"min":[0],"type":"SCALAR"},{"bufferView":4,"componentType":5126,"count":76,"max":[2.799999952316284,0.22499999403953552,2.799999952316284],"min":[-2.799999952316284,-0.22499999403953552,-2.799999952316284],"type":"VEC3"},{"bufferView":5,"componentType":5126,"count":76,"max":[0.8320503234863281,1,0.8320503234863281],"min":[-0.8320503234863281,-1,-0.8320503234863281],"type":"VEC3"},{"bufferView":6,"componentType":5126,"count":76,"max":[1,1],"min":[0,0],"type":"VEC2"},{"bufferView":7,"componentType":5123,"count":144,"max":[75],"min":[0],"type":"SCALAR"},{"bufferView":8,"componentType":5126,"count":58,"max":[0.7090615630149841,2.9000000953674316,0.7200000286102295],"min":[-0.7090615630149841,-2.9000000953674316,-0.67657870054245],"type":"VEC3"},{"bufferView":9,"componentType":5126,"count":58,"max":[0.9834930300712585,1,0.9986649751663208],"min":[-0.9834930300712585,-1,-0.9384381175041199],"type":"VEC3"},{"bufferView":10,"componentType":5126,"count":58,"max":[1,1],"min":[0,0],"type":"VEC2"},{"bufferView":11,"componentType":5123,"count":108,"max":[57],"min":[0],"type":"SCALAR"},{"bufferView":12,"componentType":5126,"count":46,"max":[0.29247838258743286,1.850000023841858,0.30000001192092896],"min":[-0.29247838258743286,-1.850000023841858,-0.27029067277908325],"type":"VEC3"},{"bufferView":13,"componentType":5126,"count":46,"max":[0.9737762808799744,1,0.9988187551498413],"min":[-0.9737762808799744,-1,-0.8999046087265015],"type":"VEC3"},{"bufferView":14,"componentType":5126,"count":46,"max":[1,1],"min":[0,0],"type":"VEC2"},{"bufferView":15,"componentType":5123,"count":84,"max":[45],"min":[0],"type":"SCALAR"},{"bufferView":16,"componentType":5126,"count":240,"max":[0.7200000286102295,0.7200000286102295,0.7200000286102295],"min":[-0.7200000286102295,-0.7200000286102295,-0.7200000286102295],"type":"VEC3"},{"bufferView":17,"componentType":5126,"count":240,"max":[1,1,1],"min":[-1,-1,-1],"type":"VEC3"},{"bufferView":18,"componentType":5126,"count":240,"max":[1.0580698251724243,1],"min":[0,0],"type":"VEC2"},{"bufferView":19,"componentType":5126,"count":24,"max":[0.574999988079071,1.225000023841858,0.17000000178813934],"min":[-0.574999988079071,-1.225000023841858,-0.17000000178813934],"type":"VEC3"},{"bufferView":20,"componentType":5126,"count":24,"max":[1,1,1],"min":[-1,-1,-1],"type":"VEC3"},{"bufferView":21,"componentType":5126,"count":24,"max":[1,1],"min":[0,0],"type":"VEC2"},{"bufferView":22,"componentType":5123,"count":36,"max":[23],"min":[0],"type":"SCALAR"},{"bufferView":23,"componentType":5126,"count":24,"max":[0.3799999952316284,0.46000000834465027,0.029999999329447746],"min":[-0.3799999952316284,-0.46000000834465027,-0.029999999329447746],"type":"VEC3"},{"bufferView":24,"componentType":5126,"count":24,"max":[1,1,1],"min":[-1,-1,-1],"type":"VEC3"},{"bufferView":25,"componentType":5126,"count":24,"max":[1,1],"min":[0,0],"type":"VEC2"},{"bufferView":26,"componentType":5123,"count":36,"max":[23],"min":[0],"type":"SCALAR"},{"bufferView":27,"componentType":5126,"count":24,"max":[0.574999988079071,1.225000023841858,0.17000000178813934],"min":[-0.574999988079071,-1.225000023841858,-0.17000000178813934],"type":"VEC3"},{"bufferView":28,"componentType":5126,"count":24,"max":[1,1,1],"min":[-1,-1,-1],"type":"VEC3"},{"bufferView":29,"componentType":5126,"count":24,"max":[1,1],"min":[0,0],"type":"VEC2"},{"bufferView":30,"componentType":5123,"count":36,"max":[23],"min":[0],"type":"SCALAR"},{"bufferView":31,"componentType":5126,"count":24,"max":[0.3799999952316284,0.46000000834465027,0.029999999329447746],"min":[-0.3799999952316284,-0.46000000834465027,-0.029999999329447746],"type":"VEC3"},{"bufferView":32,"componentType":5126,"count":24,"max":[1,1,1],"min":[-1,-1,-1],"type":"VEC3"},{"bufferView":33,"componentType":5126,"count":24,"max":[1,1],"min":[0,0],"type":"VEC2"},{"bufferView":34,"componentType":5123,"count":36,"max":[23],"min":[0],"type":"SCALAR"},{"bufferView":35,"componentType":5126,"count":24,"max":[0.574999988079071,1.225000023841858,0.17000000178813934],"min":[-0.574999988079071,-1.225000023841858,-0.17000000178813934],"type":"VEC3"},{"bufferView":36,"componentType":5126,"count":24,"max":[1,1,1],"min":[-1,-1,-1],"type":"VEC3"},{"bufferView":37,"componentType":5126,"count":24,"max":[1,1],"min":[0,0],"type":"VEC2"},{"bufferView":38,"componentType":5123,"count":36,"max":[23],"min":[0],"type":"SCALAR"},{"bufferView":39,"componentType":5126,"count":24,"max":[0.3799999952316284,0.46000000834465027,0.029999999329447746],"min":[-0.3799999952316284,-0.46000000834465027,-0.029999999329447746],"type":"VEC3"},{"bufferView":40,"componentType":5126,"count":24,"max":[1,1,1],"min":[-1,-1,-1],"type":"VEC3"},{"bufferView":41,"componentType":5126,"count":24,"max":[1,1],"min":[0,0],"type":"VEC2"},{"bufferView":42,"componentType":5123,"count":36,"max":[23],"min":[0],"type":"SCALAR"},{"bufferView":43,"componentType":5126,"count":24,"max":[0.574999988079071,1.225000023841858,0.17000000178813934],"min":[-0.574999988079071,-1.225000023841858,-0.17000000178813934],"type":"VEC3"},{"bufferView":44,"componentType":5126,"count":24,"max":[1,1,1],"min":[-1,-1,-1],"type":"VEC3"},{"bufferView":45,"componentType":5126,"count":24,"max":[1,1],"min":[0,0],"type":"VEC2"},{"bufferView":46,"componentType":5123,"count":36,"max":[23],"min":[0],"type":"SCALAR"},{"bufferView":47,"componentType":5126,"count":24,"max":[0.3799999952316284,0.46000000834465027,0.029999999329447746],"min":[-0.3799999952316284,-0.46000000834465027,-0.029999999329447746],"type":"VEC3"},{"bufferView":48,"componentType":5126,"count":24,"max":[1,1,1],"min":[-1,-1,-1],"type":"VEC3"},{"bufferView":49,"componentType":5126,"count":24,"max":[1,1],"min":[0,0],"type":"VEC2"},{"bufferView":50,"componentType":5123,"count":36,"max":[23],"min":[0],"type":"SCALAR"},{"bufferView":51,"componentType":5126,"count":24,"max":[0.574999988079071,1.225000023841858,0.17000000178813934],"min":[-0.574999988079071,-1.225000023841858,-0.17000000178813934],"type":"VEC3"},{"bufferView":52,"componentType":5126,"count":24,"max":[1,1,1],"min":[-1,-1,-1],"type":"VEC3"},{"bufferView":53,"componentType":5126,"count":24,"max":[1,1],"min":[0,0],"type":"VEC2"},{"bufferView":54,"componentType":5123,"count":36,"max":[23],"min":[0],"type":"SCALAR"},{"bufferView":55,"componentType":5126,"count":24,"max":[0.3799999952316284,0.46000000834465027,0.029999999329447746],"min":[-0.3799999952316284,-0.46000000834465027,-0.029999999329447746],"type":"VEC3"},{"bufferView":56,"componentType":5126,"count":24,"max":[1,1,1],"min":[-1,-1,-1],"type":"VEC3"},{"bufferView":57,"componentType":5126,"count":24,"max":[1,1],"min":[0,0],"type":"VEC2"},{"bufferView":58,"componentType":5123,"count":36,"max":[23],"min":[0],"type":"SCALAR"},{"bufferView":59,"componentType":5126,"count":24,"max":[0.574999988079071,1.225000023841858,0.17000000178813934],"min":[-0.574999988079071,-1.225000023841858,-0.17000000178813934],"type":"VEC3"},{"bufferView":60,"componentType":5126,"count":24,"max":[1,1,1],"min":[-1,-1,-1],"type":"VEC3"},{"bufferView":61,"componentType":5126,"count":24,"max":[1,1],"min":[0,0],"type":"VEC2"},{"bufferView":62,"componentType":5123,"count":36,"max":[23],"min":[0],"type":"SCALAR"},{"bufferView":63,"componentType":5126,"count":24,"max":[0.3799999952316284,0.46000000834465027,0.029999999329447746],"min":[-0.3799999952316284,-0.46000000834465027,-0.029999999329447746],"type":"VEC3"},{"bufferView":64,"componentType":5126,"count":24,"max":[1,1,1],"min":[-1,-1,-1],"type":"VEC3"},{"bufferView":65,"componentType":5126,"count":24,"max":[1,1],"min":[0,0],"type":"VEC2"},{"bufferView":66,"componentType":5123,"count":36,"max":[23],"min":[0],"type":"SCALAR"},{"bufferView":67,"componentType":5126,"count":24,"max":[0.574999988079071,1.225000023841858,0.17000000178813934],"min":[-0.574999988079071,-1.225000023841858,-0.17000000178813934],"type":"VEC3"},{"bufferView":68,"componentType":5126,"count":24,"max":[1,1,1],"min":[-1,-1,-1],"type":"VEC3"},{"bufferView":69,"componentType":5126,"count":24,"max":[1,1],"min":[0,0],"type":"VEC2"},{"bufferView":70,"componentType":5123,"count":36,"max":[23],"min":[0],"type":"SCALAR"},{"bufferView":71,"componentType":5126,"count":24,"max":[0.3799999952316284,0.46000000834465027,0.029999999329447746],"min":[-0.3799999952316284,-0.46000000834465027,-0.029999999329447746],"type":"VEC3"},{"bufferView":72,"componentType":5126,"count":24,"max":[1,1,1],"min":[-1,-1,-1],"type":"VEC3"},{"bufferView":73,"componentType":5126,"count":24,"max":[1,1],"min":[0,0],"type":"VEC2"},{"bufferView":74,"componentType":5123,"count":36,"max":[23],"min":[0],"type":"SCALAR"},{"bufferView":75,"componentType":5126,"count":24,"max":[0.574999988079071,1.225000023841858,0.17000000178813934],"min":[-0.574999988079071,-1.225000023841858,-0.17000000178813934],"type":"VEC3"},{"bufferView":76,"componentType":5126,"count":24,"max":[1,1,1],"min":[-1,-1,-1],"type":"VEC3"},{"bufferView":77,"componentType":5126,"count":24,"max":[1,1],"min":[0,0],"type":"VEC2"},{"bufferView":78,"componentType":5123,"count":36,"max":[23],"min":[0],"type":"SCALAR"},{"bufferView":79,"componentType":5126,"count":24,"max":[0.3799999952316284,0.46000000834465027,0.029999999329447746],"min":[-0.3799999952316284,-0.46000000834465027,-0.029999999329447746],"type":"VEC3"},{"bufferView":80,"componentType":5126,"count":24,"max":[1,1,1],"min":[-1,-1,-1],"type":"VEC3"},{"bufferView":81,"componentType":5126,"count":24,"max":[1,1],"min":[0,0],"type":"VEC2"},{"bufferView":82,"componentType":5123,"count":36,"max":[23],"min":[0],"type":"SCALAR"}],"materials":[{"pbrMetallicRoughness":{"baseColorFactor":[0.07036009568874305,0.10946171076915331,0.0722718506743852,1],"metallicFactor":0.02,"roughnessFactor":0.92}},{"pbrMetallicRoughness":{"baseColorFactor":[0.158960835050774,0.19806931954941637,0.12477181755144427,1],"metallicFactor":0,"roughnessFactor":0.96}},{"pbrMetallicRoughness":{"baseColorFactor":[0.07421356837213867,0.03954623527052923,0.02217388478862708,1],"metallicFactor":0,"roughnessFactor":1}},{"pbrMetallicRoughness":{"baseColorFactor":[0.6866853124288864,0.5906188409113381,0.38642943377667954,1],"metallicFactor":0,"roughnessFactor":0.88}}],"meshes":[{"primitives":[{"mode":4,"attributes":{"POSITION":0,"NORMAL":1,"TEXCOORD_0":2},"indices":3,"material":0}]},{"primitives":[{"mode":4,"attributes":{"POSITION":4,"NORMAL":5,"TEXCOORD_0":6},"indices":7,"material":1}]},{"primitives":[{"mode":4,"attributes":{"POSITION":8,"NORMAL":9,"TEXCOORD_0":10},"indices":11,"material":2}]},{"primitives":[{"mode":4,"attributes":{"POSITION":12,"NORMAL":13,"TEXCOORD_0":14},"indices":15,"material":2}]},{"primitives":[{"mode":4,"attributes":{"POSITION":16,"NORMAL":17,"TEXCOORD_0":18},"material":1}]},{"primitives":[{"mode":4,"attributes":{"POSITION":19,"NORMAL":20,"TEXCOORD_0":21},"indices":22,"material":0}]},{"primitives":[{"mode":4,"attributes":{"POSITION":23,"NORMAL":24,"TEXCOORD_0":25},"indices":26,"material":3}]},{"primitives":[{"mode":4,"attributes":{"POSITION":27,"NORMAL":28,"TEXCOORD_0":29},"indices":30,"material":0}]},{"primitives":[{"mode":4,"attributes":{"POSITION":31,"NORMAL":32,"TEXCOORD_0":33},"indices":34,"material":3}]},{"primitives":[{"mode":4,"attributes":{"POSITION":35,"NORMAL":36,"TEXCOORD_0":37},"indices":38,"material":0}]},{"primitives":[{"mode":4,"attributes":{"POSITION":39,"NORMAL":40,"TEXCOORD_0":41},"indices":42,"material":3}]},{"primitives":[{"mode":4,"attributes":{"POSITION":43,"NORMAL":44,"TEXCOORD_0":45},"indices":46,"material":0}]},{"primitives":[{"mode":4,"attributes":{"POSITION":47,"NORMAL":48,"TEXCOORD_0":49},"indices":50,"material":3}]},{"primitives":[{"mode":4,"attributes":{"POSITION":51,"NORMAL":52,"TEXCOORD_0":53},"indices":54,"material":0}]},{"primitives":[{"mode":4,"attributes":{"POSITION":55,"NORMAL":56,"TEXCOORD_0":57},"indices":58,"material":3}]},{"primitives":[{"mode":4,"attributes":{"POSITION":59,"NORMAL":60,"TEXCOORD_0":61},"indices":62,"material":0}]},{"primitives":[{"mode":4,"attributes":{"POSITION":63,"NORMAL":64,"TEXCOORD_0":65},"indices":66,"material":3}]},{"primitives":[{"mode":4,"attributes":{"POSITION":67,"NORMAL":68,"TEXCOORD_0":69},"indices":70,"material":0}]},{"primitives":[{"mode":4,"attributes":{"POSITION":71,"NORMAL":72,"TEXCOORD_0":73},"indices":74,"material":3}]},{"primitives":[{"mode":4,"attributes":{"POSITION":75,"NORMAL":76,"TEXCOORD_0":77},"indices":78,"material":0}]},{"primitives":[{"mode":4,"attributes":{"POSITION":79,"NORMAL":80,"TEXCOORD_0":81},"indices":82,"material":3}]}]}
