{"asset":{"version":"2.0","generator":"THREE.GLTFExporter r181"},"scenes":[{"name":"AuxScene","nodes":[0]}],"scene":0,"nodes":[{"name":"VerdantArchiveLodge","children":[1,2,3,4,5,6,7,8,9,10,11,12,13,14,15,16,17,18,19,20,21,22,23,24,25,26,27,28,29,30,31,32,33,34,35,36,37]},{"matrix":[1,0,0,0,0,1,0,0,0,0,1,0,0,0.35,0,1],"name":"StoneFoundation","mesh":0},{"matrix":[1,0,0,0,0,1,0,0,0,0,1,0,0,3,0,1],"name":"LodgeBody","mesh":1},{"matrix":[1,0,0,0,0,1,0,0,0,0,1,0,-3.8,3,3.18,1],"name":"FrontBeam_1","mesh":2},{"matrix":[1,0,0,0,0,1,0,0,0,0,1,0,-2.53,3,3.18,1],"name":"FrontBeam_2","mesh":3},{"matrix":[1,0,0,0,0,1,0,0,0,0,1,0,-1.2599999999999998,3,3.18,1],"name":"FrontBeam_3","mesh":4},{"matrix":[1,0,0,0,0,1,0,0,0,0,1,0,0.010000000000000231,3,3.18,1],"name":"FrontBeam_4","mesh":5},{"matrix":[1,0,0,0,0,1,0,0,0,0,1,0,1.2800000000000002,3,3.18,1],"name":"FrontBeam_5","mesh":6},{"matrix":[1,0,0,0,0,1,0,0,0,0,1,0,2.55,3,3.18,1],"name":"FrontBeam_6","mesh":7},{"matrix":[1,0,0,0,0,1,0,0,0,0,1,0,3.8200000000000003,3,3.18,1],"name":"FrontBeam_7","mesh":8},{"matrix":[1,0,0,0,0,1,0,0,0,0,1,0,-2.35,3.15,3.18,1],"name":"Window_Left","mesh":9},{"matrix":[1,0,0,0,0,1,0,0,0,0,1,0,-3.18,3.15,3.24,1],"mesh":10},{"matrix":[1,0,0,0,0,1,0,0,0,0,1,0,-1.52,3.15,3.24,1],"mesh":11},{"matrix":[1,0,0,0,0,1,0,0,0,0,1,0,-2.35,2.23,3.24,1],"mesh":12},{"matrix":[1,0,0,0,0,1,0,0,0,0,1,0,-2.35,4.07,3.24,1],"mesh":13},{"matrix":[1,0,0,0,0,1,0,0,0,0,1,0,2.35,3.15,3.18,1],"name":"Window_Right","mesh":14},{"matrix":[1,0,0,0,0,1,0,0,0,0,1,0,1.52,3.15,3.24,1],"mesh":15},{"matrix":[1,0,0,0,0,1,0,0,0,0,1,0,3.18,3.15,3.24,1],"mesh":16},{"matrix":[1,0,0,0,0,1,0,0,0,0,1,0,2.35,2.23,3.24,1],"mesh":17},{"matrix":[1,0,0,0,0,1,0,0,0,0,1,0,2.35,4.07,3.24,1],"mesh":18},{"matrix":[1,0,0,0,0,1,0,0,0,0,1,0,0,2.05,3.2,1],"name":"FrontDoor","mesh":19},{"matrix":[0.7899922314973651,-0.6131168519734339,0,0,0.6131168519734339,0.7899922314973651,0,0,0,0,1,0,-2.15,5.65,0,1],"name":"RoofLeft","mesh":20},{"matrix":[0.7899922314973651,0.6131168519734339,0,0,-0.6131168519734339,0.7899922314973651,0,0,0,0,1,0,2.15,5.65,0,1],"name":"RoofRight","mesh":20},{"matrix":[-1,0,-1.2246467991473532e-16,0,0,1,0,0,1.2246467991473532e-16,0,-1,0,0,5.33,-3.14,1],"mesh":21},{"matrix":[1,0,0,0,0,1,0,0,0,0,1,0,0,5.33,3.14,1],"mesh":22},{"matrix":[1,0,0,0,0,1,0,0,0,0,1,0,2.7,7,-1.1,1],"name":"Chimney","mesh":23},{"matrix":[1,0,0,0,0,1,0,0,0,0,1,0,0,0.9,3.9,1],"name":"FrontPorch","mesh":24},{"matrix":[1,0,0,0,0,0.9968017063026194,-0.07991469396917268,0,0,0.07991469396917268,0.9968017063026194,0,0,4.65,3.85,1],"mesh":25},{"matrix":[1,0,0,0,0,1,0,0,0,0,1,0,-2.5,2.2,4.55,1],"mesh":26},{"matrix":[1,0,0,0,0,1,0,0,0,0,1,0,2.5,2.2,4.55,1],"mesh":27},{"matrix":[1,0,0,0,0,1,0,0,0,0,1,0,-2.65,1.45,3.95,1],"mesh":28},{"matrix":[1,0,0,0,0,1,0,0,0,0,1,0,2.65,1.45,3.95,1],"mesh":29},{"matrix":[2.220446049250313e-16,1,0,0,-1,2.220446049250313e-16,0,0,0,0,1,0,4.25,0.9,2.7,1],"mesh":30},{"matrix":[2.220446049250313e-16,1,0,0,-1,2.220446049250313e-16,0,0,0,0,1,0,4.25,0.9,3.08,1],"mesh":31},{"matrix":[2.220446049250313e-16,1,0,0,-1,2.220446049250313e-16,0,0,0,0,1,0,4.25,0.9,3.46,1],"mesh":32},{"matrix":[2.220446049250313e-16,1,0,0,-1,2.220446049250313e-16,0,0,0,0,1,0,4.25,1.24,2.7,1],"mesh":33},{"matrix":[2.220446049250313e-16,1,0,0,-1,2.220446049250313e-16,0,0,0,0,1,0,4.25,1.24,3.08,1],"mesh":34},{"matrix":[2.220446049250313e-16,1,0,0,-1,2.220446049250313e-16,0,0,0,0,1,0,4.25,1.24,3.46,1],"mesh":35}],"bufferViews":[{"buffer":0,"byteOffset":0,"byteLength":288,"target":34962,"byteStride":12},{"buffer":0,"byteOffset":288,"byteLength":288,"target":34962,"byteStride":12},{"buffer":0,"byteOffset":576,"byteLength":192,"target":34962,"byteStride":8},{"buffer":0,"byteOffset":768,"byteLength":72,"target":34963},{"buffer":0,"byteOffset":840,"byteLength":288,"target":34962,"byteStride":12},{"buffer":0,"byteOffset":1128,"byteLength":288,"target":34962,"byteStride":12},{"buffer":0,"byteOffset":1416,"byteLength":192,"target":34962,"byteStride":8},{"buffer":0,"byteOffset":1608,"byteLength":72,"target":34963},{"buffer":0,"byteOffset":1680,"byteLength":288,"target":34962,"byteStride":12},{"buffer":0,"byteOffset":1968,"byteLength":288,"target":34962,"byteStride":12},{"buffer":0,"byteOffset":2256,"byteLength":192,"target":34962,"byteStride":8},{"buffer":0,"byteOffset":2448,"byteLength":72,"target":34963},{"buffer":0,"byteOffset":2520,"byteLength":288,"target":34962,"byteStride":12},{"buffer":0,"byteOffset":2808,"byteLength":288,"target":34962,"byteStride":12},{"buffer":0,"byteOffset":3096,"byteLength":192,"target":34962,"byteStride":8},{"buffer":0,"byteOffset":3288,"byteLength":72,"target":34963},{"buffer":0,"byteOffset":3360,"byteLength":288,"target":34962,"byteStride":12},{"buffer":0,"byteOffset":3648,"byteLength":288,"target":34962,"byteStride":12},{"buffer":0,"byteOffset":3936,"byteLength":192,"target":34962,"byteStride":8},{"buffer":0,"byteOffset":4128,"byteLength":72,"target":34963},{"buffer":0,"byteOffset":4200,"byteLength":288,"target":34962,"byteStride":12},{"buffer":0,"byteOffset":4488,"byteLength":288,"target":34962,"byteStride":12},{"buffer":0,"byteOffset":4776,"byteLength":192,"target":34962,"byteStride":8},{"buffer":0,"byteOffset":4968,"byteLength":72,"target":34963},{"buffer":0,"byteOffset":5040,"byteLength":288,"target":34962,"byteStride":12},{"buffer":0,"byteOffset":5328,"byteLength":288,"target":34962,"byteStride":12},{"buffer":0,"byteOffset":5616,"byteLength":192,"target":34962,"byteStride":8},{"buffer":0,"byteOffset":5808,"byteLength":72,"target":34963},{"buffer":0,"byteOffset":5880,"byteLength":288,"target":34962,"byteStride":12},{"buffer":0,"byteOffset":6168,"byteLength":288,"target":34962,"byteStride":12},{"buffer":0,"byteOffset":6456,"byteLength":192,"target":34962,"byteStride":8},{"buffer":0,"byteOffset":6648,"byteLength":72,"target":34963},{"buffer":0,"byteOffset":6720,"byteLength":288,"target":34962,"byteStride":12},{"buffer":0,"byteOffset":7008,"byteLength":288,"target":34962,"byteStride":12},{"buffer":0,"byteOffset":7296,"byteLength":192,"target":34962,"byteStride":8},{"buffer":0,"byteOffset":7488,"byteLength":72,"target":34963},{"buffer":0,"byteOffset":7560,"byteLength":288,"target":34962,"byteStride":12},{"buffer":0,"byteOffset":7848,"byteLength":288,"target":34962,"byteStride":12},{"buffer":0,"byteOffset":8136,"byteLength":192,"target":34962,"byteStride":8},{"buffer":0,"byteOffset":8328,"byteLength":72,"target":34963},{"buffer":0,"byteOffset":8400,"byteLength":288,"target":34962,"byteStride":12},{"buffer":0,"byteOffset":8688,"byteLength":288,"target":34962,"byteStride":12},{"buffer":0,"byteOffset":8976,"byteLength":192,"target":34962,"byteStride":8},{"buffer":0,"byteOffset":9168,"byteLength":72,"target":34963},{"buffer":0,"byteOffset":9240,"byteLength":288,"target":34962,"byteStride":12},{"buffer":0,"byteOffset":9528,"byteLength":288,"target":34962,"byteStride":12},{"buffer":0,"byteOffset":9816,"byteLength":192,"target":34962,"byteStride":8},{"buffer":0,"byteOffset":10008,"byteLength":72,"target":34963},{"buffer":0,"byteOffset":10080,"byteLength":288,"target":34962,"byteStride":12},{"buffer":0,"byteOffset":10368,"byteLength":288,"target":34962,"byteStride":12},{"buffer":0,"byteOffset":10656,"byteLength":192,"target":34962,"byteStride":8},{"buffer":0,"byteOffset":10848,"byteLength":72,"target":34963},{"buffer":0,"byteOffset":10920,"byteLength":288,"target":34962,"byteStride":12},{"buffer":0,"byteOffset":11208,"byteLength":288,"target":34962,"byteStride":12},{"buffer":0,"byteOffset":11496,"byteLength":192,"target":34962,"byteStride":8},{"buffer":0,"byteOffset":11688,"byteLength":72,"target":34963},{"buffer":0,"byteOffset":11760,"byteLength":288,"target":34962,"byteStride":12},{"buffer":0,"byteOffset":12048,"byteLength":288,"target":34962,"byteStride":12},{"buffer":0,"byteOffset":12336,"byteLength":192,"target":34962,"byteStride":8},{"buffer":0,"byteOffset":12528,"byteLength":72,"target":34963},{"buffer":0,"byteOffset":12600,"byteLength":288,"target":34962,"byteStride":12},{"buffer":0,"byteOffset":12888,"byteLength":288,"target":34962,"byteStride":12},{"buffer":0,"byteOffset":13176,"byteLength":192,"target":34962,"byteStride":8},{"buffer":0,"byteOffset":13368,"byteLength":72,"target":34963},{"buffer":0,"byteOffset":13440,"byteLength":288,"target":34962,"byteStride":12},{"buffer":0,"byteOffset":13728,"byteLength":288,"target":34962,"byteStride":12},{"buffer":0,"byteOffset":14016,"byteLength":192,"target":34962,"byteStride":8},{"buffer":0,"byteOffset":14208,"byteLength":72,"target":34963},{"buffer":0,"byteOffset":14280,"byteLength":288,"target":34962,"byteStride":12},{"buffer":0,"byteOffset":14568,"byteLength":288,"target":34962,"byteStride":12},{"buffer":0,"byteOffset":14856,"byteLength":192,"target":34962,"byteStride":8},{"buffer":0,"byteOffset":15048,"byteLength":72,"target":34963},{"buffer":0,"byteOffset":15120,"byteLength":288,"target":34962,"byteStride":12},{"buffer":0,"byteOffset":15408,"byteLength":288,"target":34962,"byteStride":12},{"buffer":0,"byteOffset":15696,"byteLength":192,"target":34962,"byteStride":8},{"buffer":0,"byteOffset":15888,"byteLength":72,"target":34963},{"buffer":0,"byteOffset":15960,"byteLength":288,"target":34962,"byteStride":12},{"buffer":0,"byteOffset":16248,"byteLength":288,"target":34962,"byteStride":12},{"buffer":0,"byteOffset":16536,"byteLength":192,"target":34962,"byteStride":8},{"buffer":0,"byteOffset":16728,"byteLength":72,"target":34963},{"buffer":0,"byteOffset":16800,"byteLength":288,"target":34962,"byteStride":12},{"buffer":0,"byteOffset":17088,"byteLength":288,"target":34962,"byteStride":12},{"buffer":0,"byteOffset":17376,"byteLength":192,"target":34962,"byteStride":8},{"buffer":0,"byteOffset":17568,"byteLength":72,"target":34963},{"buffer":0,"byteOffset":17640,"byteLength":36,"target":34962,"byteStride":12},{"buffer":0,"byteOffset":17676,"byteLength":36,"target":34962,"byteStride":12},{"buffer":0,"byteOffset":17712,"byteLength":24,"target":34962,"byteStride":8},{"buffer":0,"byteOffset":17736,"byteLength":8,"target":34963},{"buffer":0,"byteOffset":17744,"byteLength":36,"target":34962,"byteStride":12},{"buffer":0,"byteOffset":17780,"byteLength":36,"target":34962,"byteStride":12},{"buffer":0,"byteOffset":17816,"byteLength":24,"target":34962,"byteStride":8},{"buffer":0,"byteOffset":17840,"byteLength":8,"target":34963},{"buffer":0,"byteOffset":17848,"byteLength":288,"target":34962,"byteStride":12},{"buffer":0,"byteOffset":18136,"byteLength":288,"target":34962,"byteStride":12},{"buffer":0,"byteOffset":18424,"byteLength":192,"target":34962,"byteStride":8},{"buffer":0,"byteOffset":18616,"byteLength":72,"target":34963},{"buffer":0,"byteOffset":18688,"byteLength":288,"target":34962,"byteStride":12},{"buffer":0,"byteOffset":18976,"byteLength":288,"target":34962,"byteStride":12},{"buffer":0,"byteOffset":19264,"byteLength":192,"target":34962,"byteStride":8},{"buffer":0,"byteOffset":19456,"byteLength":72,"target":34963},{"buffer":0,"byteOffset":19528,"byteLength":288,"target":34962,"byteStride":12},{"buffer":0,"byteOffset":19816,"byteLength":288,"target":34962,"byteStride":12},{"buffer":0,"byteOffset":20104,"byteLength":192,"target":34962,"byteStride":8},{"buffer":0,"byteOffset":20296,"byteLength":72,"target":34963},{"buffer":0,"byteOffset":20368,"byteLength":288,"target":34962,"byteStride":12},{"buffer":0,"byteOffset":20656,"byteLength":288,"target":34962,"byteStride":12},{"buffer":0,"byteOffset":20944,"byteLength":192,"target":34962,"byteStride":8},{"buffer":0,"byteOffset":21136,"byteLength":72,"target":34963},{"buffer":0,"byteOffset":21208,"byteLength":288,"target":34962,"byteStride":12},{"buffer":0,"byteOffset":21496,"byteLength":288,"target":34962,"byteStride":12},{"buffer":0,"byteOffset":21784,"byteLength":192,"target":34962,"byteStride":8},{"buffer":0,"byteOffset":21976,"byteLength":72,"target":34963},{"buffer":0,"byteOffset":22048,"byteLength":288,"target":34962,"byteStride":12},{"buffer":0,"byteOffset":22336,"byteLength":288,"target":34962,"byteStride":12},{"buffer":0,"byteOffset":22624,"byteLength":192,"target":34962,"byteStride":8},{"buffer":0,"byteOffset":22816,"byteLength":72,"target":34963},{"buffer":0,"byteOffset":22888,"byteLength":288,"target":34962,"byteStride":12},{"buffer":0,"byteOffset":23176,"byteLength":288,"target":34962,"byteStride":12},{"buffer":0,"byteOffset":23464,"byteLength":192,"target":34962,"byteStride":8},{"buffer":0,"byteOffset":23656,"byteLength":72,"target":34963},{"buffer":0,"byteOffset":23728,"byteLength":624,"target":34962,"byteStride":12},{"buffer":0,"byteOffset":24352,"byteLength":624,"target":34962,"byteStride":12},{"buffer":0,"byteOffset":24976,"byteLength":416,"target":34962,"byteStride":8},{"buffer":0,"byteOffset":25392,"byteLength":192,"target":34963},{"buffer":0,"byteOffset":25584,"byteLength":624,"target":34962,"byteStride":12},{"buffer":0,"byteOffset":26208,"byteLength":624,"target":34962,"byteStride":12},{"buffer":0,"byteOffset":26832,"byteLength":416,"target":34962,"byteStride":8},{"buffer":0,"byteOffset":27248,"byteLength":192,"target":34963},{"buffer":0,"byteOffset":27440,"byteLength":624,"target":34962,"byteStride":12},{"buffer":0,"byteOffset":28064,"byteLength":624,"target":34962,"byteStride":12},{"buffer":0,"byteOffset":28688,"byteLength":416,"target":34962,"byteStride":8},{"buffer":0,"byteOffset":29104,"byteLength":192,"target":34963},{"buffer":0,"byteOffset":29296,"byteLength":624,"target":34962,"byteStride":12},{"buffer":0,"byteOffset":29920,"byteLength":624,"target":34962,"byteStride":12},{"buffer":0,"byteOffset":30544,"byteLength":416,"target":34962,"byteStride":8},{"buffer":0,"byteOffset":30960,"byteLength":192,"target":34963},{"buffer":0,"byteOffset":31152,"byteLength":624,"target":34962,"byteStride":12},{"buffer":0,"byteOffset":31776,"byteLength":624,"target":34962,"byteStride":12},{"buffer":0,"byteOffset":32400,"byteLength":416,"target":34962,"byteStride":8},{"buffer":0,"byteOffset":32816,"byteLength":192,"target":34963},{"buffer":0,"byteOffset":33008,"byteLength":624,"target":34962,"byteStride":12},{"buffer":0,"byteOffset":33632,"byteLength":624,"target":34962,"byteStride":12},{"buffer":0,"byteOffset":34256,"byteLength":416,"target":34962,"byteStride":8},{"buffer":0,"byteOffset":34672,"byteLength":192,"target":34963}],"buffers":[{"byteLength":34864,"uri":"data:application/octet-stream;base64,"}],"accessors":[{"bufferView":0,"componentType":5126,"count":24,"max":[4.699999809265137,0.3499999940395355,3.5999999046325684],"min":[-4.699999809265137,-0.3499999940395355,-3.5999999046325684],"type":"VEC3"},{"bufferView":1,"componentType":5126,"count":24,"max":[1,1,1],"min":[-1,-1,-1],"type":"VEC3"},{"bufferView":2,"componentType":5126,"count":24,"max":[1,1],"min":[0,0],"type":"VEC2"},{"bufferView":3,"componentType":5123,"count":36,"max":[23],"min":[0],"type":"SCALAR"},{"bufferView":4,"componentType":5126,"count":24,"max":[4.099999904632568,2.3499999046325684,3.0999999046325684],"min":[-4.099999904632568,-2.3499999046325684,-3.0999999046325684],"type":"VEC3"},{"bufferView":5,"componentType":5126,"count":24,"max":[1,1,1],"min":[-1,-1,-1],"type":"VEC3"},{"bufferView":6,"componentType":5126,"count":24,"max":[1,1],"min":[0,0],"type":"VEC2"},{"bufferView":7,"componentType":5123,"count":36,"max":[23],"min":[0],"type":"SCALAR"},{"bufferView":8,"componentType":5126,"count":24,"max":[0.1599999964237213,2.549999952316284,0.1599999964237213],"min":[-0.1599999964237213,-2.549999952316284,-0.1599999964237213],"type":"VEC3"},{"bufferView":9,"componentType":5126,"count":24,"max":[1,1,1],"min":[-1,-1,-1],"type":"VEC3"},{"bufferView":10,"componentType":5126,"count":24,"max":[1,1],"min":[0,0],"type":"VEC2"},{"bufferView":11,"componentType":5123,"count":36,"max":[23],"min":[0],"type":"SCALAR"},{"bufferView":12,"componentType":5126,"count":24,"max":[0.1599999964237213,2.549999952316284,0.1599999964237213],"min":[-0.1599999964237213,-2.549999952316284,-0.1599999964237213],"type":"VEC3"},{"bufferView":13,"componentType":5126,"count":24,"max":[1,1,1],"min":[-1,-1,-1],"type":"VEC3"},{"bufferView":14,"componentType":5126,"count":24,"max":[1,1],"min":[0,0],"type":"VEC2"},{"bufferView":15,"componentType":5123,"count":36,"max":[23],"min":[0],"type":"SCALAR"},{"bufferView":16,"componentType":5126,"count":24,"max":[0.1599999964237213,2.549999952316284,0.1599999964237213],"min":[-0.1599999964237213,-2.549999952316284,-0.1599999964237213],"type":"VEC3"},{"bufferView":17,"componentType":5126,"count":24,"max":[1,1,1],"min":[-1,-1,-1],"type":"VEC3"},{"bufferView":18,"componentType":5126,"count":24,"max":[1,1],"min":[0,0],"type":"VEC2"},{"bufferView":19,"componentType":5123,"count":36,"max":[23],"min":[0],"type":"SCALAR"},{"bufferView":20,"componentType":5126,"count":24,"max":[0.1599999964237213,2.549999952316284,0.1599999964237213],"min":[-0.1599999964237213,-2.549999952316284,-0.1599999964237213],"type":"VEC3"},{"bufferView":21,"componentType":5126,"count":24,"max":[1,1,1],"min":[-1,-1,-1],"type":"VEC3"},{"bufferView":22,"componentType":5126,"count":24,"max":[1,1],"min":[0,0],"type":"VEC2"},{"bufferView":23,"componentType":5123,"count":36,"max":[23],"min":[0],"type":"SCALAR"},{"bufferView":24,"componentType":5126,"count":24,"max":[0.1599999964237213,2.549999952316284,0.1599999964237213],"min":[-0.1599999964237213,-2.549999952316284,-0.1599999964237213],"type":"VEC3"},{"bufferView":25,"componentType":5126,"count":24,"max":[1,1,1],"min":[-1,-1,-1],"type":"VEC3"},{"bufferView":26,"componentType":5126,"count":24,"max":[1,1],"min":[0,0],"type":"VEC2"},{"bufferView":27,"componentType":5123,"count":36,"max":[23],"min":[0],"type":"SCALAR"},{"bufferView":28,"componentType":5126,"count":24,"max":[0.1599999964237213,2.549999952316284,0.1599999964237213],"min":[-0.1599999964237213,-2.549999952316284,-0.1599999964237213],"type":"VEC3"},{"bufferView":29,"componentType":5126,"count":24,"max":[1,1,1],"min":[-1,-1,-1],"type":"VEC3"},{"bufferView":30,"componentType":5126,"count":24,"max":[1,1],"min":[0,0],"type":"VEC2"},{"bufferView":31,"componentType":5123,"count":36,"max":[23],"min":[0],"type":"SCALAR"},{"bufferView":32,"componentType":5126,"count":24,"max":[0.1599999964237213,2.549999952316284,0.1599999964237213],"min":[-0.1599999964237213,-2.549999952316284,-0.1599999964237213],"type":"VEC3"},{"bufferView":33,"componentType":5126,"count":24,"max":[1,1,1],"min":[-1,-1,-1],"type":"VEC3"},{"bufferView":34,"componentType":5126,"count":24,"max":[1,1],"min":[0,0],"type":"VEC2"},{"bufferView":35,"componentType":5123,"count":36,"max":[23],"min":[0],"type":"SCALAR"},{"bufferView":36,"componentType":5126,"count":24,"max":[0.7749999761581421,0.824999988079071,0.05999999865889549],"min":[-0.7749999761581421,-0.824999988079071,-0.05999999865889549],"type":"VEC3"},{"bufferView":37,"componentType":5126,"count":24,"max":[1,1,1],"min":[-1,-1,-1],"type":"VEC3"},{"bufferView":38,"componentType":5126,"count":24,"max":[1,1],"min":[0,0],"type":"VEC2"},{"bufferView":39,"componentType":5123,"count":36,"max":[23],"min":[0],"type":"SCALAR"},{"bufferView":40,"componentType":5126,"count":24,"max":[0.054999999701976776,0.949999988079071,0.07999999821186066],"min":[-0.054999999701976776,-0.949999988079071,-0.07999999821186066],"type":"VEC3"},{"bufferView":41,"componentType":5126,"count":24,"max":[1,1,1],"min":[-1,-1,-1],"type":"VEC3"},{"bufferView":42,"componentType":5126,"count":24,"max":[1,1],"min":[0,0],"type":"VEC2"},{"bufferView":43,"componentType":5123,"count":36,"max":[23],"min":[0],"type":"SCALAR"},{"bufferView":44,"componentType":5126,"count":24,"max":[0.054999999701976776,0.949999988079071,0.07999999821186066],"min":[-0.054999999701976776,-0.949999988079071,-0.07999999821186066],"type":"VEC3"},{"bufferView":45,"componentType":5126,"count":24,"max":[1,1,1],"min":[-1,-1,-1],"type":"VEC3"},{"bufferView":46,"componentType":5126,"count":24,"max":[1,1],"min":[0,0],"type":"VEC2"},{"bufferView":47,"componentType":5123,"count":36,"max":[23],"min":[0],"type":"SCALAR"},{"bufferView":48,"componentType":5126,"count":24,"max":[0.8899999856948853,0.054999999701976776,0.07999999821186066],"min":[-0.8899999856948853,-0.054999999701976776,-0.07999999821186066],"type":"VEC3"},{"bufferView":49,"componentType":5126,"count":24,"max":[1,1,1],"min":[-1,-1,-1],"type":"VEC3"},{"bufferView":50,"componentType":5126,"count":24,"max":[1,1],"min":[0,0],"type":"VEC2"},{"bufferView":51,"componentType":5123,"count":36,"max":[23],"min":[0],"type":"SCALAR"},{"bufferView":52,"componentType":5126,"count":24,"max":[0.8899999856948853,0.054999999701976776,0.07999999821186066],"min":[-0.8899999856948853,-0.054999999701976776,-0.07999999821186066],"type":"VEC3"},{"bufferView":53,"componentType":5126,"count":24,"max":[1,1,1],"min":[-1,-1,-1],"type":"VEC3"},{"bufferView":54,"componentType":5126,"count":24,"max":[1,1],"min":[0,0],"type":"VEC2"},{"bufferView":55,"componentType":5123,"count":36,"max":[23],"min":[0],"type":"SCALAR"},{"bufferView":56,"componentType":5126,"count":24,"max":[0.7749999761581421,0.824999988079071,0.05999999865889549],"min":[-0.7749999761581421,-0.824999988079071,-0.05999999865889549],"type":"VEC3"},{"bufferView":57,"componentType":5126,"count":24,"max":[1,1,1],"min":[-1,-1,-1],"type":"VEC3"},{"bufferView":58,"componentType":5126,"count":24,"max":[1,1],"min":[0,0],"type":"VEC2"},{"bufferView":59,"componentType":5123,"count":36,"max":[23],"min":[0],"type":"SCALAR"},{"bufferView":60,"componentType":5126,"count":24,"max":[0.054999999701976776,0.949999988079071,0.07999999821186066],"min":[-0.054999999701976776,-0.949999988079071,-0.07999999821186066],"type":"VEC3"},{"bufferView":61,"componentType":5126,"count":24,"max":[1,1,1],"min":[-1,-1,-1],"type":"VEC3"},{"bufferView":62,"componentType":5126,"count":24,"max":[1,1],"min":[0,0],"type":"VEC2"},{"bufferView":63,"componentType":5123,"count":36,"max":[23],"min":[0],"type":"SCALAR"},{"bufferView":64,"componentType":5126,"count":24,"max":[0.054999999701976776,0.949999988079071,0.07999999821186066],"min":[-0.054999999701976776,-0.949999988079071,-0.07999999821186066],"type":"VEC3"},{"bufferView":65,"componentType":5126,"count":24,"max":[1,1,1],"min":[-1,-1,-1],"type":"VEC3"},{"bufferView":66,"componentType":5126,"count":24,"max":[1,1],"min":[0,0],"type":"VEC2"},{"bufferView":67,"componentType":5123,"count":36,"max":[23],"min":[0],"type":"SCALAR"},{"bufferView":68,"componentType":5126,"count":24,"max":[0.8899999856948853,0.054999999701976776,0.07999999821186066],"min":[-0.8899999856948853,-0.054999999701976776,-0.07999999821186066],"type":"VEC3"},{"bufferView":69,"componentType":5126,"count":24,"max":[1,1,1],"min":[-1,-1,-1],"type":"VEC3"},{"bufferView":70,"componentType":5126,"count":24,"max":[1,1],"min":[0,0],"type":"VEC2"},{"bufferView":71,"componentType":5123,"count":36,"max":[23],"min":[0],"type":"SCALAR"},{"bufferView":72,"componentType":5126,"count":24,"max":[0.8899999856948853,0.054999999701976776,0.07999999821186066],"min":[-0.8899999856948853,-0.054999999701976776,-0.07999999821186066],"type":"VEC3"},{"bufferView":73,"componentType":5126,"count":24,"max":[1,1,1],"min":[-1,-1,-1],"type":"VEC3"},{"bufferView":74,"componentType":5126,"count":24,"max":[1,1],"min":[0,0],"type":"VEC2"},{"bufferView":75,"componentType":5123,"count":36,"max":[23],"min":[0],"type":"SCALAR"},{"bufferView":76,"componentType":5126,"count":24,"max":[0.7749999761581421,1.4249999523162842,0.09000000357627869],"min":[-0.7749999761581421,-1.4249999523162842,-0.09000000357627869],"type":"VEC3"},{"bufferView":77,"componentType":5126,"count":24,"max":[1,1,1],"min":[-1,-1,-1],"type":"VEC3"},{"bufferView":78,"componentType":5126,"count":24,"max":[1,1],"min":[0,0],"type":"VEC2"},{"bufferView":79,"componentType":5123,"count":36,"max":[23],"min":[0],"type":"SCALAR"},{"bufferView":80,"componentType":5126,"count":24,"max":[2.799999952316284,0.20999999344348907,3.75],"min":[-2.799999952316284,-0.20999999344348907,-3.75],"type":"VEC3"},{"bufferView":81,"componentType":5126,"count":24,"max":[1,1,1],"min":[-1,-1,-1],"type":"VEC3"},{"bufferView":82,"componentType":5126,"count":24,"max":[1,1],"min":[0,0],"type":"VEC2"},{"bufferView":83,"componentType":5123,"count":36,"max":[23],"min":[0],"type":"SCALAR"},{"bufferView":84,"componentType":5126,"count":3,"max":[4.099999904632568,3.200000047683716,0],"min":[-4.099999904632568,0,0],"type":"VEC3"},{"bufferView":85,"componentType":5126,"count":3,"max":[0,0,1],"min":[0,0,1],"type":"VEC3"},{"bufferView":86,"componentType":5126,"count":3,"max":[4.099999904632568,3.200000047683716],"min":[-4.099999904632568,0],"type":"VEC2"},{"bufferView":87,"componentType":5123,"count":3,"max":[2],"min":[0],"type":"SCALAR"},{"bufferView":88,"componentType":5126,"count":3,"max":[4.099999904632568,3.200000047683716,0],"min":[-4.099999904632568,0,0],"type":"VEC3"},{"bufferView":89,"componentType":5126,"count":3,"max":[0,0,1],"min":[0,0,1],"type":"VEC3"},{"bufferView":90,"componentType":5126,"count":3,"max":[4.099999904632568,3.200000047683716],"min":[-4.099999904632568,0],"type":"VEC2"},{"bufferView":91,"componentType":5123,"count":3,"max":[2],"min":[0],"type":"SCALAR"},{"bufferView":92,"componentType":5126,"count":24,"max":[0.42500001192092896,1.25,0.42500001192092896],"min":[-0.42500001192092896,-1.25,-0.42500001192092896],"type":"VEC3"},{"bufferView":93,"componentType":5126,"count":24,"max":[1,1,1],"min":[-1,-1,-1],"type":"VEC3"},{"bufferView":94,"componentType":5126,"count":24,"max":[1,1],"min":[0,0],"type":"VEC2"},{"bufferView":95,"componentType":5123,"count":36,"max":[23],"min":[0],"type":"SCALAR"},{"bufferView":96,"componentType":5126,"count":24,"max":[2.9000000953674316,0.14000000059604645,1.0499999523162842],"min":[-2.9000000953674316,-0.14000000059604645,-1.0499999523162842],"type":"VEC3"},{"bufferView":97,"componentType":5126,"count":24,"max":[1,1,1],"min":[-1,-1,-1],"type":"VEC3"},{"bufferView":98,"componentType":5126,"count":24,"max":[1,1],"min":[0,0],"type":"VEC2"},{"bufferView":99,"componentType":5123,"count":36,"max":[23],"min":[0],"type":"SCALAR"},{"bufferView":100,"componentType":5126,"count":24,"max":[3.200000047683716,0.10999999940395355,1.225000023841858],"min":[-3.200000047683716,-0.10999999940395355,-1.225000023841858],"type":"VEC3"},{"bufferView":101,"componentType":5126,"count":24,"max":[1,1,1],"min":[-1,-1,-1],"type":"VEC3"},{"bufferView":102,"componentType":5126,"count":24,"max":[1,1],"min":[0,0],"type":"VEC2"},{"bufferView":103,"componentType":5123,"count":36,"max":[23],"min":[0],"type":"SCALAR"},{"bufferView":104,"componentType":5126,"count":24,"max":[0.14000000059604645,1.350000023841858,0.14000000059604645],"min":[-0.14000000059604645,-1.350000023841858,-0.14000000059604645],"type":"VEC3"},{"bufferView":105,"componentType":5126,"count":24,"max":[1,1,1],"min":[-1,-1,-1],"type":"VEC3"},{"bufferView":106,"componentType":5126,"count":24,"max":[1,1],"min":[0,0],"type":"VEC2"},{"bufferView":107,"componentType":5123,"count":36,"max":[23],"min":[0],"type":"SCALAR"},{"bufferView":108,"componentType":5126,"count":24,"max":[0.14000000059604645,1.350000023841858,0.14000000059604645],"min":[-0.14000000059604645,-1.350000023841858,-0.14000000059604645],"type":"VEC3"},{"bufferView":109,"componentType":5126,"count":24,"max":[1,1,1],"min":[-1,-1,-1],"type":"VEC3"},{"bufferView":110,"componentType":5126,"count":24,"max":[1,1],"min":[0,0],"type":"VEC2"},{"bufferView":111,"componentType":5123,"count":36,"max":[23],"min":[0],"type":"SCALAR"},{"bufferView":112,"componentType":5126,"count":24,"max":[0.09000000357627869,0.550000011920929,0.925000011920929],"min":[-0.09000000357627869,-0.550000011920929,-0.925000011920929],"type":"VEC3"},{"bufferView":113,"componentType":5126,"count":24,"max":[1,1,1],"min":[-1,-1,-1],"type":"VEC3"},{"bufferView":114,"componentType":5126,"count":24,"max":[1,1],"min":[0,0],"type":"VEC2"},{"bufferView":115,"componentType":5123,"count":36,"max":[23],"min":[0],"type":"SCALAR"},{"bufferView":116,"componentType":5126,"count":24,"max":[0.09000000357627869,0.550000011920929,0.925000011920929],"min":[-0.09000000357627869,-0.550000011920929,-0.925000011920929],"type":"VEC3"},{"bufferView":117,"componentType":5126,"count":24,"max":[1,1,1],"min":[-1,-1,-1],"type":"VEC3"},{"bufferView":118,"componentType":5126,"count":24,"max":[1,1],"min":[0,0],"type":"VEC2"},{"bufferView":119,"componentType":5123,"count":36,"max":[23],"min":[0],"type":"SCALAR"},{"bufferView":120,"componentType":5126,"count":52,"max":[0.20000000298023224,0.675000011920929,0.20000000298023224],"min":[-0.20000000298023224,-0.675000011920929,-0.20000000298023224],"type":"VEC3"},{"bufferView":121,"componentType":5126,"count":52,"max":[0.9995613098144531,1,0.9995613098144531],"min":[-0.9995613098144531,-1,-0.9995613098144531],"type":"VEC3"},{"bufferView":122,"componentType":5126,"count":52,"max":[1,1],"min":[0,0],"type":"VEC2"},{"bufferView":123,"componentType":5123,"count":96,"max":[51],"min":[0],"type":"SCALAR"},{"bufferView":124,"componentType":5126,"count":52,"max":[0.20000000298023224,0.675000011920929,0.20000000298023224],"min":[-0.20000000298023224,-0.675000011920929,-0.20000000298023224],"type":"VEC3"},{"bufferView":125,"componentType":5126,"count":52,"max":[0.9995613098144531,1,0.9995613098144531],"min":[-0.9995613098144531,-1,-0.9995613098144531],"type":"VEC3"},{"bufferView":126,"componentType":5126,"count":52,"max":[1,1],"min":[0,0],"type":"VEC2"},{"bufferView":127,"componentType":5123,"count":96,"max":[51],"min":[0],"type":"SCALAR"},{"bufferView":128,"componentType":5126,"count":52,"max":[0.20000000298023224,0.675000011920929,0.20000000298023224],"min":[-0.20000000298023224,-0.675000011920929,-0.20000000298023224],"type":"VEC3"},{"bufferView":129,"componentType":5126,"count":52,"max":[0.9995613098144531,1,0.9995613098144531],"min":[-0.9995613098144531,-1,-0.9995613098144531],"type":"VEC3"},{"bufferView":130,"componentType":5126,"count":52,"max":[1,1],"min":[0,0],"type":"VEC2"},{"bufferView":131,"componentType":5123,"count":96,"max":[51],"min":[0],"type":"SCALAR"},{"bufferView":132,"componentType":5126,"count":52,"max":[0.20000000298023224,0.675000011920929,0.20000000298023224],"min":[-0.20000000298023224,-0.675000011920929,-0.20000000298023224],"type":"VEC3"},{"bufferView":133,"componentType":5126,"count":52,"max":[0.9995613098144531,1,0.9995613098144531],"min":[-0.9995613098144531,-1,-0.9995613098144531],"type":"VEC3"},{"bufferView":134,"componentType":5126,"count":52,"max":[1,1],"min":[0,0],"type":"VEC2"},{"bufferView":135,"componentType":5123,"count":96,"max":[51],"min":[0],"type":"SCALAR"},{"bufferView":136,"componentType":5126,"count":52,"max":[0.20000000298023224,0.675000011920929,0.20000000298023224],"min":[-0.20000000298023224,-0.675000011920929,-0.20000000298023224],"type":"VEC3"},{"bufferView":137,"componentType":5126,"count":52,"max":[0.9995613098144531,1,0.9995613098144531],"min":[-0.9995613098144531,-1,-0.9995613098144531],"type":"VEC3"},{"bufferView":138,"componentType":5126,"count":52,"max":[1,1],"min":[0,0],"type":"VEC2"},{"bufferView":139,"componentType":5123,"count":96,"max":[51],"min":[0],"type":"SCALAR"},{"bufferView":140,"componentType":5126,"count":52,"max":[0.20000000298023224,0.675000011920929,0.20000000298023224],"min":[-0.20000000298023224,-0.675000011920929,-0.20000000298023224],"type":"VEC3"},{"bufferView":141,"componentType":5126,"count":52,"max":[0.9995613098144531,1,0.9995613098144531],"min":[-0.9995613098144531,-1,-0.9995613098144531],"type":"VEC3"},{"bufferView":142,"componentType":5126,"count":52,"max":[1,1],"min":[0,0],"type":"VEC2"},{"bufferView":143,"componentType":5123,"count":96,"max":[51],"min":[0],"type":"SCALAR"}],"materials":[{"pbrMetallicRoughness":{"baseColorFactor":[0.08865558627723595,0.09758734713304495,0.07818742179702069,1],"metallicFactor":0,"roughnessFactor":1}},{"pbrMetallicRoughness":{"baseColorFactor":[0.2501582847191642,0.2788942634659966,0.19461783043107173,1],"metallicFactor":0,"roughnessFactor":0.92}},{"pbrMetallicRoughness":{"baseColorFactor":[0.08021982030622662,0.04666508633021928,0.025186859622305935,1],"metallicFactor":0,"roughnessFactor":0.96}},{"pbrMetallicRoughness":{"baseColorFactor":[0.6866853124288864,0.508881320845802,0.1878207722902346,1],"metallicFactor":0,"roughnessFactor":0.72},"emissiveFactor":[0.3231432091022285,0.158960835050774,0.025186859622305935],"extensions":{"KHR_materials_emissive_strength":{"emissiveStrength":0.8}}},{"pbrMetallicRoughness":{"baseColorFactor":[0.026241221889696346,0.019382360952473074,0.012286488353353374,1],"metallicFactor":0,"roughnessFactor":1}},{"pbrMetallicRoughness":{"baseColorFactor":[0.02121901037134225,0.040915196900556984,0.026241221889696346,1],"metallicFactor":0,"roughnessFactor":1}},{"pbrMetallicRoughness":{"baseColorFactor":[0.08228270712149792,0.05126945836711539,0.036889450395083165,1],"metallicFactor":0,"roughnessFactor":0.98}}],"meshes":[{"primitives":[{"mode":4,"attributes":{"POSITION":0,"NORMAL":1,"TEXCOORD_0":2},"indices":3,"material":0}]},{"primitives":[{"mode":4,"attributes":{"POSITION":4,"NORMAL":5,"TEXCOORD_0":6},"indices":7,"material":1}]},{"primitives":[{"mode":4,"attributes":{"POSITION":8,"NORMAL":9,"TEXCOORD_0":10},"indices":11,"material":2}]},{"primitives":[{"mode":4,"attributes":{"POSITION":12,"NORMAL":13,"TEXCOORD_0":14},"indices":15,"material":2}]},{"primitives":[{"mode":4,"attributes":{"POSITION":16,"NORMAL":17,"TEXCOORD_0":18},"indices":19,"material":2}]},{"primitives":[{"mode":4,"attributes":{"POSITION":20,"NORMAL":21,"TEXCOORD_0":22},"indices":23,"material":2}]},{"primitives":[{"mode":4,"attributes":{"POSITION":24,"NORMAL":25,"TEXCOORD_0":26},"indices":27,"material":2}]},{"primitives":[{"mode":4,"attributes":{"POSITION":28,"NORMAL":29,"TEXCOORD_0":30},"indices":31,"material":2}]},{"primitives":[{"mode":4,"attributes":{"POSITION":32,"NORMAL":33,"TEXCOORD_0":34},"indices":35,"material":2}]},{"primitives":[{"mode":4,"attributes":{"POSITION":36,"NORMAL":37,"TEXCOORD_0":38},"indices":39,"material":3}]},{"primitives":[{"mode":4,"attributes":{"POSITION":40,"NORMAL":41,"TEXCOORD_0":42},"indices":43,"material":4}]},{"primitives":[{"mode":4,"attributes":{"POSITION":44,"NORMAL":45,"TEXCOORD_0":46},"indices":47,"material":4}]},{"primitives":[{"mode":4,"attributes":{"POSITION":48,"NORMAL":49,"TEXCOORD_0":50},"indices":51,"material":4}]},{"primitives":[{"mode":4,"attributes":{"POSITION":52,"NORMAL":53,"TEXCOORD_0":54},"indices":55,"material":4}]},{"primitives":[{"mode":4,"attributes":{"POSITION":56,"NORMAL":57,"TEXCOORD_0":58},"indices":59,"material":3}]},{"primitives":[{"mode":4,"attributes":{"POSITION":60,"NORMAL":61,"TEXCOORD_0":62},"indices":63,"material":4}]},{"primitives":[{"mode":4,"attributes":{"POSITION":64,"NORMAL":65,"TEXCOORD_0":66},"indices":67,"material":4}]},{"primitives":[{"mode":4,"attributes":{"POSITION":68,"NORMAL":69,"TEXCOORD_0":70},"indices":71,"material":4}]},{"primitives":[{"mode":4,"attributes":{"POSITION":72,"NORMAL":73,"TEXCOORD_0":74},"indices":75,"material":4}]},{"primitives":[{"mode":4,"attributes":{"POSITION":76,"NORMAL":77,"TEXCOORD_0":78},"indices":79,"material":4}]},{"primitives":[{"mode":4,"attributes":{"POSITION":80,"NORMAL":81,"TEXCOORD_0":82},"indices":83,"material":5}]},{"primitives":[{"mode":4,"attributes":{"POSITION":84,"NORMAL":85,"TEXCOORD_0":86},"indices":87,"material":1}]},{"primitives":[{"mode":4,"attributes":{"POSITION":88,"NORMAL":89,"TEXCOORD_0":90},"indices":91,"material":1}]},{"primitives":[{"mode":4,"attributes":{"POSITION":92,"NORMAL":93,"TEXCOORD_0":94},"indices":95,"material":6}]},{"primitives":[{"mode":4,"attributes":{"POSITION":96,"NORMAL":97,"TEXCOORD_0":98},"indices":99,"material":2}]},{"primitives":[{"mode":4,"attributes":{"POSITION":100,"NORMAL":101,"TEXCOORD_0":102},"indices":103,"material":5}]},{"primitives":[{"mode":4,"attributes":{"POSITION":104,"NORMAL":105,"TEXCOORD_0":106},"indices":107,"material":2}]},{"primitives":[{"mode":4,"attributes":{"POSITION":108,"NORMAL":109,"TEXCOORD_0":110},"indices":111,"material":2}]},{"primitives":[{"mode":4,"attributes":{"POSITION":112,"NORMAL":113,"TEXCOORD_0":114},"indices":115,"material":2}]},{"primitives":[{"mode":4,"attributes":{"POSITION":116,"NORMAL":117,"TEXCOORD_0":118},"indices":119,"material":2}]},{"primitives":[{"mode":4,"attributes":{"POSITION":120,"NORMAL":121,"TEXCOORD_0":122},"indices":123,"material":2}]},{"primitives":[{"mode":4,"attributes":{"POSITION":124,"NORMAL":125,"TEXCOORD_0":126},"indices":127,"material":2}]},{"primitives":[{"mode":4,"attributes":{"POSITION":128,"NORMAL":129,"TEXCOORD_0":130},"indices":131,"material":2}]},{"primitives":[{"mode":4,"attributes":{"POSITION":132,"NORMAL":133,"TEXCOORD_0":134},"indices":135,"material":2}]},{"primitives":[{"mode":4,"attributes":{"POSITION":136,"NORMAL":137,"TEXCOORD_0":138},"indices":139,"material":2}]},{"primitives":[{"mode":4,"attributes":{"POSITION":140,"NORMAL":141,"TEXCOORD_0":142},"indices":143,"material":2}]}],"extensionsUsed":["KHR_materials_emissive_strength"]}
